# xmcd CD database file
# Copyright (C) 1995-1998 Ti Kan
#
# Track frame offsets:
#	150
#	23130
#	49720
#	78079
#	111436
#	170996
#	193399
#	220837
#
# Disc length: 3602 seconds
#
# Revision: 1
# Processed by: cddbd v1.4PL0 Copyright (c) Steve Scherf et al.
# Submitted via: CDex 1.30Release
#
DISCID=700e1008
DTITLE=B. B. King - The Thrill Is Gone
DYEAR=1999
DGENRE=Blues
TTITLE0=The Thrill Is Gone
TTITLE1=Guess Who
TTITLE2=Payin' The Cost To Be The Boss
TTITLE3=All Over Again
TTITLE4=Jam
TTITLE5=Everyday I Have The Blues
TTITLE6=Sweet Little Angel
TTITLE7=B. B.'s Theme
EXTD=YEAR: 1999 ID3G:   0
EXTT0=
EXTT1=
EXTT2=
EXTT3=
EXTT4=
EXTT5=
EXTT6=
EXTT7=
PLAYORDER=
